<svg height="512" viewBox="0 0 60 60" width="512" xmlns="http://www.w3.org/2000/svg"><g id="042---Hoodie" transform="translate(-1)"><path id="Shape" d="m14 15.44c-2.8719252.2495565-5.2971801 2.2342168-6.11 5l-6.69 23.13c-.38301691 1.2952613-.21668249 2.6910241.46 3.86.10259135.1816438.22319878.3525043.36.51l-.78 3.06c-.25296958 1.0585499.38694083 2.1250673 1.44 2.4l5.81 1.49c.51456223.1335524 1.06112344.0567492 1.518951-.2134441.4578276-.2701933.7892469-.7115426.921049-1.2265559l.77-3c.3652844-.1587265.7028704-.3747816 1-.64l.06 2.28c.0382388 1.489777.9015026 2.8347729 2.24 3.49v2.42c0 1.1045695.8954305 2 2 2h28c1.1045695 0 2-.8954305 2-2v-2.42c1.3346123-.6579974 2.1936696-2.0024413 2.23-3.49l.06-2.28c.2938453.2695172.6321876.4860563 1 .64l.77 3c.2087801.904159 1.012058 1.5459532 1.94 1.55.38 0 .1 0 6.31-1.55.5190793-.1294728.9646495-.4615106 1.2371273-.9219042.2724779-.4603937.3491472-1.0107606.2128727-1.5280958l-.78-3c.1368012-.1574957.2574087-.3283562.36-.51.6766825-1.1689759.8430169-2.5647387.46-3.86l-6.66-23.19c-.8128199-2.7657832-3.2380748-4.7504435-6.11-5-1.76-1.9-3.45-2.17-6-2.9.7000068-.7930064 1.0498257-1.8352505.97-2.89-.17-1.78-1.43-9.65-12-9.65s-11.83 7.87-12 9.65c-.0901421 1.0440334.2330216 2.081748.9 2.89-2.5.74-4.18 1.01-5.9 2.9zm-10.79 36 .53-2.07c.31858026.1701966.65363568.3075694 1 .41 3.85 1 4 1.07 4.76 1.09l-.5 2.13zm9.39-4.91c-.1722892.8017239-.6652519 1.4979778-1.3642181 1.926803-.6989663.4288252-1.54300539.5528401-2.3357819.343197l-3.64-.94c-.78453711-.2010267-1.45446805-.7107123-1.85749876-1.4131911-.40303072-.7024787-.50491845-1.5380658-.28250124-2.3168089l6.66-23.13c.402157-1.3743568 1.374283-2.5103243 2.67-3.12-.3185072.8428378-.471303 1.73924-.45 2.64.71 27.92.66 25.66.57 26.03zm4.4 11.47v-2h28v2zm36-5-.53-2.06c.3775637-.0105457.7529672-.060823 1.12-.15 3.66-.94 3.94-1 4.69-1.35l.53 2.07zm-.78-32 6.66 23.13c.2224172.7787431.1205295 1.6143302-.2825012 2.3168089-.4030308.7024788-1.0729617 1.2121644-1.8574988 1.4131911l-3.64.94c-.7857597.2007884-1.619337.0748906-2.3107494-.3489999-.6914124-.4238904-1.1817471-1.1096552-1.3592506-1.9010001-.09-.37-.13 1.74.57-26 .0225968-.9041091-.13022-1.8040304-.45-2.65 1.2913869.6052508 2.2628489 1.7331655 2.67 3.1zm-15.33-17.68c.64.55 1.33 1.25 1 2.05-.42 1.29-3.13 2.63-6.89 2.63s-6.47-1.34-6.93-2.63c-.22-.62.12-1.3 1-2 3.7327656-1.79000738 8.0722243-1.80836381 11.82-.05zm-14.84 10.68h1.95c.5522847 0 1-.4477153 1-1s-.4477153-1-1-1c-1.28 0-1.38.08-2-.27-.7238913-.4364945-1.1174108-1.2628854-1-2.1.110257-1.26414357.5106369-2.48581558 1.17-3.57 1.89 5.23 15.67 5.25 17.61 0 .69 1.14 1.53 3.52 1.06 4.66-.2941701.7625569-1.0227384 1.2693871-1.84 1.28h-1c-.5522847 0-1 .4477153-1 1s.4477153 1 1 1h2l4 1.19c2.3721585.6618175 4.0095505 2.8272683 4 5.29l-.77 31.57c0 1.1045695-.8954305 2-2 2h-28.46c-1.1045695 0-2-.8954305-2-2l-.77-31.58c-.0050443-2.4590238 1.6314295-4.6191692 4-5.28z"/><path id="Shape" d="m27 16v10c0 .5522847.4477153 1 1 1s1-.4477153 1-1v-10c.5522847 0 1-.4477153 1-1s-.4477153-1-1-1h-2c-.5522847 0-1 .4477153-1 1s.4477153 1 1 1z"/><path id="Shape" d="m33 16v10c0 .5522847.4477153 1 1 1s1-.4477153 1-1v-10c.5522847 0 1-.4477153 1-1s-.4477153-1-1-1h-2c-.5522847 0-1 .4477153-1 1s.4477153 1 1 1z"/><path id="Shape" d="m21 51h20c1.6568542 0 3-1.3431458 3-3v-3.48c-.0045303-1.2282391-.7572938-2.329651-1.9-2.78-2.37-.87-3-3.17-3.14-4.94-.104334-1.5629824-1.3936359-2.7825923-2.96-2.8h-10c-1.5817914-.0035188-2.8945509 1.2217235-3 2.8-.13 1.77-.77 4.07-3.14 4.94-1.1269989.4629881-1.8620464 1.5616075-1.86 2.78v3.48c0 1.6568542 1.3431458 3 3 3zm-1-6.48c.0008198-.3928994.231641-.7489117.59-.91 2.63-1 4.21-3.33 4.44-6.67.0308901-.5173547.4519304-.9253731.97-.94h10c.5296773-.0009542.9682202.4112761 1 .94.23 3.34 1.81 5.71 4.44 6.67.358359.1610883.5891802.5171006.59.91v3.48c0 .5522847-.4477153 1-1 1h-20.03c-.5522847 0-1-.4477153-1-1z"/></g></svg>